# xmcd CD database file
#
# Track frame offsets:
#	150
#	13828
#	28193
#	50622
#	64161
#	90176
#	109136
#	143796
#	161447
#	183541
#	204131
#
# Disc length: 3187 seconds
#
# Revision: 0
# Processed by: cddbd v1.5.2PL0 Copyright (c) Steve Scherf et al.
# Submitted via: CDex 1.50
#
DISCID=8e0c710b
DTITLE=Quartetto Alborada - Ethos
DYEAR=2010
DGENRE=Jazz
TTITLE0=The Fifth Season - Tempo I°
TTITLE1=Elettra's Magic Stick
TTITLE2=Canto
TTITLE3=Elektrico
TTITLE4=Gitanes
TTITLE5=Quartetto N° 2 - Tempo III°
TTITLE6=Andante
TTITLE7=Veronica
TTITLE8=Forever
TTITLE9=Le Temps Qui Change
TTITLE10=Ave Maria
EXTD=YEAR: 2010
EXTT0=
EXTT1=
EXTT2=
EXTT3=
EXTT4=
EXTT5=
EXTT6=
EXTT7=
EXTT8=
EXTT9=
EXTT10=
PLAYORDER=
